# WaveFront *.obj file (generated by CINEMA 4D)
# mtllib ./LFT.mtl

v -1 -1 1
v -1 1 1
v 1 -1 1
v 1 1 1
v 1 -1 -1
v 1 1 -1
v -1 -1 -1
v -1 1 -1
# 8 vertices

vn 0 0 1
vn 0 0 0
vn 1 0 0
vn 0 0 -1
vn 0 0 -1
vn -1 0 0
vn 0 1 0
vn 0 -1 0
# 8 normals

vt 0 0 0
vt 0 1 0
vt 1 1 0
vt 1 0 0
# 4 texture coordinates

# o 立方体
# usemtl default
f 4/3/1 2/2/1 1/1/1
f 6/3/3 4/2/3 3/1/3
f 8/3/4 6/2/5 5/1/4
f 2/3/6 8/2/6 7/1/6
f 6/3/7 8/2/7 2/1/7
f 3/3/8 1/2/8 7/1/8
f 3/4/1 4/3/1 1/1/1
f 5/4/3 6/3/3 3/1/3
f 7/4/4 8/3/4 5/1/4
f 1/4/6 2/3/6 7/1/6
f 4/4/7 6/3/7 2/1/7
f 5/4/8 3/3/8 7/1/8

